<?xml version="1.0" encoding="UTF-8" standalone="no"?>
<svg
   height="20"
   viewBox="0 96 800 800"
   width="20"
   version="1.1"
   id="svg20"
   sodipodi:docname="back-to-the-top-button.svg"
   inkscape:export-filename="back-to-the-top-button.png"
   inkscape:export-xdpi="96"
   inkscape:export-ydpi="96"
   xmlns:inkscape="http://www.inkscape.org/namespaces/inkscape"
   xmlns:sodipodi="http://sodipodi.sourceforge.net/DTD/sodipodi-0.dtd"
   xmlns="http://www.w3.org/2000/svg"
   xmlns:svg="http://www.w3.org/2000/svg">
  <defs
     id="defs24" />
  <sodipodi:namedview
     id="namedview22"
     pagecolor="#ffffff"
     bordercolor="#666666"
     borderopacity="1.0"
     inkscape:showpageshadow="2"
     inkscape:pageopacity="0.0"
     inkscape:pagecheckerboard="0"
     inkscape:deskcolor="#d1d1d1"
     showgrid="false" />
  <path
     d="m 400,356 -180,180 57,56 123,-123 123,123 57,-56 z m 0,-260 q 83,0 156,31.5 73,31.5 127,85.5 54,54 85.5,127 31.5,73 31.5,156 0,83 -31.5,156 Q 737,725 683,779 629,833 556,864.5 483,896 400,896 317,896 244,864.5 171,833 117,779 63,725 31.5,652 0,579 0,496 0,413 31.5,340 63,267 117,213 171,159 244,127.5 317,96 400,96 Z m 0,80 q -134,0 -227,93 -93,93 -93,227 0,134 93,227 93,93 227,93 134,0 227,-93 93,-93 93,-227 0,-134 -93,-227 -93,-93 -227,-93 z m 0,320 z"
     id="path18"
     style="fill:#999999" />
</svg>
